{"title":"Trois couleurs Bleu (1993) [Three Colors Blu]","uid":6769904,"size":4692821954,"categoryP":"video","categoryS":"hd___movies","magnet":"?xt=urn:btih:b6315aa370b8fb9fddba7253ebf3c5e86c2ea49f&amp;dn=Trois+couleurs+Bleu+%281993%29+%5BThree+Colors+Blu%5D&amp;tr=udp%3A%2F%2Ftracker.openbittorrent.com%3A80&amp;tr=udp%3A%2F%2Fopen.demonii.com%3A1337&amp;tr=udp%3A%2F%2Ftracker.coppersurfer.tk%3A6969&amp;tr=udp%3A%2F%2Fexodus.desync.com%3A6969","seeders":3,"leechers":1,"uploader":"mfccorrea","files":2,"time":1319542605,"description":"Three Colors: Blue is the first part of Kieslowski's trilogy on France's national motto: Liberty, Equality, and Fraternity. Blue is the story of Julie who loses her husband, an acclaimed European composer and her young daughter in a car accident. The film's theme of liberty is manifested in Julie's attempt to start life anew free of personal commitments, belongings grief and love. She intends to spiritually commit suicide by withdrawing from the world and live completely independently, anonymously and in solitude in the Parisian metropolis. Despite her intentions, people from her former and present life intrude with their own needs. However, the reality created by the people who need and care about her, a surprising discovery and the music around which the film revolves heals Julie and irresistably draws her back to the land of the living.\n\n   General\n      Complete name : Three.Colors.Blue.1993.720p.BluRay.x264-MELiTE.mkv\n      Format : Matroska\n      File size : 4.37 GiB\n      Duration : 1h 33mn\n      Overall bit rate : 6 666 Kbps\n      Encoded date : UTC 2010-12-22 06:00:17\n      Writing application : mkvmerge v3.2.0 ('Beginnings') built on Feb 12 2010 16:46:17\n      Writing library : libebml v0.7.9 + libmatroska v0.8.1\n   Video #1\n      ID : 1\n      Format : AVC\n      Format/Info : Advanced Video Codec\n      Format profile : &lt;a class=&quot;__cf_email__&quot; href=&quot;/cdn-cgi/l/email-protection&quot; data-cfemail=&quot;3e765759567e720a100f&quot;&gt;[email&amp;#160;protected]&lt;/a&gt;&lt;script cf-hash='f9e31' type=&quot;text/javascript&quot;&gt;\n/* &lt;![CDATA[ */!function(){try{var t=&quot;currentScript&quot;in document?document.currentScript:function(){for(var t=document.getElementsByTagName(&quot;script&quot;),e=t.length;e--;)if(t[e].getAttribute(&quot;cf-hash&quot;))return t[e]}();if(t&amp;&amp;t.previousSibling){var e,r,n,i,c=t.previousSibling,a=c.getAttribute(&quot;data-cfemail&quot;);if(a){for(e=&quot;&quot;,r=parseInt(a.substr(0,2),16),n=2;a.length-n;n+=2)i=parseInt(a.substr(n,2),16)^r,e+=String.fromCharCode(i);e=document.createTextNode(e),c.parentNode.replaceChild(e,c)}}}catch(u){}}();/* ]]&gt; */&lt;/script&gt;\n      Format settings, CABAC : Yes\n      Format settings, ReFrames : 5 frames\n      Muxing mode : Container profile=&lt;a class=&quot;__cf_email__&quot; href=&quot;/cdn-cgi/l/email-protection&quot; data-cfemail=&quot;85d0ebeeebeaf2ebc5b1abb4&quot;&gt;[email&amp;#160;protected]&lt;/a&gt;&lt;script cf-hash='f9e31' type=&quot;text/javascript&quot;&gt;\n/* &lt;![CDATA[ */!function(){try{var t=&quot;currentScript&quot;in document?document.currentScript:function(){for(var t=document.getElementsByTagName(&quot;script&quot;),e=t.length;e--;)if(t[e].getAttribute(&quot;cf-hash&quot;))return t[e]}();if(t&amp;&amp;t.previousSibling){var e,r,n,i,c=t.previousSibling,a=c.getAttribute(&quot;data-cfemail&quot;);if(a){for(e=&quot;&quot;,r=parseInt(a.substr(0,2),16),n=2;a.length-n;n+=2)i=parseInt(a.substr(n,2),16)^r,e+=String.fromCharCode(i);e=document.createTextNode(e),c.parentNode.replaceChild(e,c)}}}catch(u){}}();/* ]]&gt; */&lt;/script&gt;\n      Codec ID : V_MPEG4/ISO/AVC\n      Duration : 1h 33mn\n      Bit rate : 5 023 Kbps\n      Nominal bit rate : 5 155 Kbps\n      Width : 1 280 pixels\n      Height : 688 pixels\n      Display aspect ratio : 1.860\n      Frame rate : 23.976 fps\n      Resolution : 24 bits\n      Colorimetry : 4:2:0\n      Scan type : Progressive\n      Bits/(Pixel*Frame) : 0.238\n      Stream size : 3.29 GiB (75%)\n      Writing library : x264 core 110 r1820 fdcf2ae\n   Audio #2\n      ID : 2\n      Format : DTS\n      Format/Info : Digital Theater Systems\n      Codec ID : A_DTS\n      Duration : 1h 33mn\n      Bit rate mode : Constant\n      Bit rate : 1 510 Kbps\n      Channel(s) : 5 channels\n      Channel positions : Front: L C R, Surround: L R\n      Sampling rate : 48.0 KHz\n      Resolution : 16 bits\n      Stream size : 1 014 MiB (23%)\n      Language : French\n   Text #3\n      ID : 3\n      Format : UTF-8\n      Codec ID : S_TEXT/UTF8\n      Codec ID/Info : UTF-8 Plain Text\n      Language : English\n &lt;a href=&quot;\nhttp://www.imdb.com/title/tt0108394/&quot; rel=&quot;nofollow&quot; target=&quot;_NEW&quot;&gt;\nhttp://www.imdb.com/title/tt0108394/&lt;/a&gt;\n\nFrench audio; English (muxed in the mkv) and Portuguese (srt) subtitles\n\n","torrent":{"xt":"urn:btih:b6315aa370b8fb9fddba7253ebf3c5e86c2ea49f","amp;dn":"Trois+couleurs+Bleu+%281993%29+%5BThree+Colors+Blu%5D","amp;tr":["udp%3A%2F%2Ftracker.openbittorrent.com%3A80","udp%3A%2F%2Fopen.demonii.com%3A1337","udp%3A%2F%2Ftracker.coppersurfer.tk%3A6969","udp%3A%2F%2Fexodus.desync.com%3A6969"],"infoHash":"b6315aa370b8fb9fddba7253ebf3c5e86c2ea49f","infoHashBuffer":{"type":"Buffer","data":[182,49,90,163,112,184,251,159,221,186,114,83,235,243,197,232,108,46,164,159]},"announce":[],"urlList":[]}}